<svg id="Layer_1" data-name="Layer 1" xmlns="http://www.w3.org/2000/svg" xmlns:xlink="http://www.w3.org/1999/xlink" viewBox="0 0 1000 1000"><defs><style>.cls-1{fill:none;}.cls-2{fill:#192352;}.cls-3{clip-path:url(#clip-path);}.cls-4{fill:#fff;}</style><clipPath id="clip-path"><rect class="cls-1" x="246.22" y="193.75" width="507.57" height="612.5"/></clipPath></defs><rect class="cls-2" x="124.5" y="124.5" width="751" height="751"/><g class="cls-3"><path class="cls-4" d="M495.3,419.07c0-9.35-3.18-16.9-10-20.92-4.29-2.52-10.09-3.34-17.26-3.34l-52.14,0V500.07h56.75c13.07,0,20.77,2.95,21.44,14.68h1.26Z"/><path class="cls-4" d="M502.58,419.07c0-9.35,3.17-16.9,10-20.92,4.3-2.52,10.1-3.34,17.26-3.34l52.51,0V500.07H525.27c-13.08,0-20.78,2.95-21.45,14.68h-1.25Z"/><path class="cls-4" d="M593.28,402.58V513.87H512.67l-.92,2.28c-1.42,3.47-3.93,6.67-12.73,6.67s-11.3-3.2-12.71-6.67l-.93-2.28H404.91V402.58h-7.28V406l-7-2.14a6.61,6.61,0,1,0-6.33,8.48,6.52,6.52,0,0,0,4.19-1.54l9.12,2.81v8.95l-6.86-1.23a6.63,6.63,0,1,0-6.08,9.24,6.67,6.67,0,0,0,4.79-2.08l8.15,1.47v9.12l-7.15-.32a6.62,6.62,0,1,0-.32,7.28l7.47.32v9.91l-7.31.26a6.63,6.63,0,1,0-5.4,10.47,6.57,6.57,0,0,0,5.64-3.19l7.07-.25v9.14l-8,1.37a6.62,6.62,0,1,0,1.25,7.16l6.75-1.16v9l-8.75,2.68a6.55,6.55,0,0,0-4.19-1.53,6.63,6.63,0,1,0,6.32,8.49l6.62-2v8.68L388,509.47a6.51,6.51,0,0,0-3.63-1.1,6.64,6.64,0,1,0,6.5,7.79l6.81-2.94v7.93h83.28c3.37,5.89,9.23,9,18.11,9s14.74-3.06,18.13-9h83.41V402.58Z"/><path class="cls-4" d="M444.24,365.46c-16.83,0-30.48,2.62-30.48,5.84s13.65,5.86,30.48,5.86,30.48-2.62,30.48-5.86-13.66-5.84-30.48-5.84"/><path class="cls-4" d="M486.2,329l-17.59,12.37-.16,1.25,4.18,1.87c.84.43.84,1.08.43,1.48L462,355.25l-1.05-.09-7.83-11.55c-.54-.74-.35-1.48.6-1.64l5.26-.87v-1.32l-13.63-19.25h-2.23l-13.63,19.25v1.32l5.26.87c.93.16,1.14.9.6,1.64l-7.84,11.55-1,.09-10.32-9.33c-.43-.4-.41-1.05.41-1.48l4.19-1.87-.16-1.25L402.26,329l-1.48.59,10.76,32.86c5.45-2.45,18-4.18,32.7-4.24s27.22,1.79,32.69,4.24l10.75-32.86Z"/><path class="cls-4" d="M498.9,585.91c-16.83,0-30.49,2.62-30.49,5.85s13.66,5.85,30.49,5.85,30.47-2.62,30.47-5.85-13.65-5.85-30.47-5.85"/><path class="cls-4" d="M540.86,549.4l-17.59,12.37-.15,1.24,4.18,1.89c.82.41.82,1.08.41,1.48l-11.06,9.32-1-.09-7.82-11.54c-.54-.74-.35-1.49.59-1.65l5.25-.86v-1.33L500,541h-2.24l-13.62,19.25v1.33l5.25.86c1,.16,1.15.91.6,1.65l-7.83,11.54-1,.09-10.33-9.32c-.43-.4-.41-1.07.42-1.48L475.4,563l-.15-1.24L456.91,549.4l-1.48.59,10.76,32.87c5.47-2.45,18-4.19,32.7-4.25s27.24,1.8,32.69,4.25L542.35,550Z"/><path class="cls-4" d="M553.41,365.46c-16.82,0-30.45,2.62-30.45,5.84s13.63,5.86,30.45,5.86,30.49-2.62,30.49-5.86-13.65-5.84-30.49-5.84"/><path class="cls-4" d="M595.38,329,577.8,341.32l-.17,1.25,4.18,1.87c.84.43.84,1.08.43,1.48l-11.06,9.33-1-.09-7.81-11.55c-.56-.74-.35-1.48.58-1.64l5.26-.87v-1.32l-13.62-19.25h-2.23l-13.65,19.25v1.32L544,342c.92.16,1.11.9.58,1.64l-7.82,11.55-1.06.09-10.32-9.45c-.42-.4-.42-1.06.42-1.47l4.18-1.76-.16-1.25L511.45,329l-1.49.59,10.76,32.86c5.45-2.45,18-4.18,32.69-4.24s27.24,1.79,32.7,4.24l10.76-32.86Z"/><path class="cls-2" d="M429.33,411.49c2.86,0,5.23.56,6.78,2.07a6.75,6.75,0,0,1,2,4.76c0,5.78-4.38,8.26-9.76,8.26h-6v-.9c1.69-.14,1.87-.31,1.87-2.81V415.2c0-2.49-.18-2.66-1.69-2.8v-.91Zm-1.13,11.4c0,2.06.5,2.46,1.62,2.46,2,0,4-2.2,4-6.32,0-5-2.54-6.38-4.51-6.38a2.16,2.16,0,0,0-1,.17c-.11.05-.13.58-.13,1.16Z"/><path class="cls-2" d="M455.69,418.86c0,5-3.38,8.08-7.85,8.08a7.44,7.44,0,0,1-7.71-7.7c0-3.75,2.5-8.1,8.06-8.1a7.36,7.36,0,0,1,7.5,7.72m-11.26-.41c0,4.21,1.59,7.27,3.87,7.27,2,0,3.08-1.92,3.08-6.12,0-4.66-1.67-7.25-3.67-7.25-1.79,0-3.28,2-3.28,6.1"/><path class="cls-2" d="M476.19,411.49v.91c-1.77.16-1.86.25-1.78,2.69l.22,7.78c.09,2.57.12,2.64,1.79,2.8v.91h-7.27v-.91c1.75-.16,1.81-.23,1.79-2.8l-.07-8.17h-.09l-4.48,11.62H465l-4.24-10.81h0l-.18,5.16a25,25,0,0,0,.07,3.82c.08.86.59,1.07,2.09,1.18v.91H457v-.91c1.12-.09,1.56-.32,1.71-1.18s.24-1.95.36-4.06l.26-4.69c.16-2.92,0-3.18-1.86-3.34v-.91h5.46l4.07,9.19,3.53-9.19Z"/><path class="cls-2" d="M483.72,422.87c0,2.51.2,2.67,1.79,2.81v.9H478v-.9c1.6-.14,1.8-.3,1.8-2.81V415.2c0-2.49-.2-2.66-1.8-2.8v-.91h7.52v.91c-1.59.14-1.79.31-1.79,2.8Z"/><path class="cls-2" d="M446.36,454.59h-2l-8.58-11h-.06v4.27a40.34,40.34,0,0,0,.18,4.44c.14.81.75,1.11,2.28,1.19v.9h-5.77v-.9c1,0,1.62-.38,1.73-1.19a36.94,36.94,0,0,0,.19-4.44v-4.27c0-1.71-.05-2-.52-2.66a2.14,2.14,0,0,0-1.75-.72v-.91h5.13l7.72,9.63h0v-3.1a41.25,41.25,0,0,0-.17-4.44c-.14-.81-.76-1.11-2.28-1.18v-.91h5.9v.91c-1.15,0-1.76.37-1.87,1.18a40.19,40.19,0,0,0-.18,4.44Z"/><path class="cls-2" d="M455.75,454.59c-1.6-4.19-3.78-9.91-4.61-12.1-.77-2-1.23-2.1-2.35-2.24v-.91h7.49v.91l-.78.08c-.86.1-.86.32-.61,1.13.43,1.3,2.26,5.86,3.12,8.14.71-2,2.2-6.41,2.57-7.49.5-1.42.35-1.68-.7-1.79l-.7-.07v-.91h5.62v.91c-1.33.16-1.64.28-2.56,2.39-.12.32-3,7.22-4.69,11.95Z"/><path class="cls-2" d="M466.22,449.65c.48,1.35,1.86,3.92,4.13,3.92a2.07,2.07,0,0,0,2.13-2.3c0-1.36-.89-2.13-2.31-2.78l-.36-.16c-1.9-.89-4.05-2.09-4.05-4.57s1.9-4.76,5.54-4.76a8.19,8.19,0,0,1,2.15.28c.52.13.9.22,1.19.32.1.91.26,2,.51,3.62l-1,.16c-.51-1.53-1.32-3.19-3.16-3.19a2,2,0,0,0-2,2c0,1.16.91,1.84,2.4,2.51l.5.24c2.14,1,4,2.14,4,4.86,0,2.87-2.3,5-5.91,5a8.53,8.53,0,0,1-2.5-.41,13.85,13.85,0,0,1-1.45-.55c-.19-1.07-.49-2.32-.78-3.88Z"/><path class="cls-2" d="M436,478.57c0,2.5.18,2.67,1.77,2.8v.91H430.3v-.91c1.6-.13,1.78-.3,1.78-2.8V470.9c0-2.5-.18-2.66-1.78-2.8v-.91h7.51v.91c-1.59.14-1.77.3-1.77,2.8Z"/><path class="cls-2" d="M445.22,478.87c0,1.21,0,1.78.46,2a3.87,3.87,0,0,0,1.63.21,2.85,2.85,0,0,0,2.22-.68,5.84,5.84,0,0,0,1.15-2.29l1,.17c-.14.87-.62,3.29-.82,4H439.34v-.91c1.75-.13,1.93-.3,1.93-2.8V470.9c0-2.5-.18-2.66-1.74-2.8v-.91h7.56v.91c-1.68.14-1.87.3-1.87,2.8Z"/><path class="cls-2" d="M458.17,478.87c0,1.21,0,1.78.46,2a3.85,3.85,0,0,0,1.63.21,2.84,2.84,0,0,0,2.22-.68,6.13,6.13,0,0,0,1.15-2.29l1,.17c-.14.87-.62,3.29-.84,4h-11.5v-.91c1.75-.13,1.95-.3,1.95-2.8V470.9c0-2.5-.2-2.66-1.76-2.8v-.91H460v.91c-1.65.14-1.85.3-1.85,2.8Z"/><path class="cls-2" d="M469.27,482.44l-4.63-12.1c-.76-2-1.22-2.1-2.34-2.24v-.91h7.5v.91l-.8.08c-.85.1-.85.32-.6,1.13.43,1.3,2.25,5.87,3.11,8.14.73-2,2.2-6.4,2.58-7.49.49-1.43.34-1.68-.69-1.79l-.7-.07v-.91h5.61v.91c-1.32.16-1.65.27-2.56,2.4-.13.31-3,7.21-4.71,11.94Z"/><path class="cls-2" d="M531.6,411.49v.91c-1.76.16-1.86.25-1.8,2.69l.23,7.78c.07,2.57.12,2.64,1.8,2.8v.91h-7.27v-.91c1.74-.16,1.82-.23,1.79-2.8l-.07-8.17h-.09l-4.48,11.62h-1.26l-4.24-10.81h-.05l-.17,5.16a27.48,27.48,0,0,0,0,3.82c.09.86.59,1.07,2.11,1.18v.91h-5.73v-.91c1.11-.09,1.56-.32,1.7-1.18a39,39,0,0,0,.36-4.06l.27-4.69c.16-2.92,0-3.18-1.86-3.34v-.91h5.46l4,9.19,3.55-9.19Z"/><path class="cls-2" d="M539.13,422.87c0,2.51.19,2.67,1.79,2.81v.9H533.4v-.9c1.59-.14,1.8-.3,1.8-2.81V415.2c0-2.49-.21-2.66-1.8-2.8v-.91h7.52v.91c-1.6.14-1.79.31-1.79,2.8Z"/><path class="cls-2" d="M556.41,426.74h-2l-8.6-10.95h0v4.26a35.62,35.62,0,0,0,.2,4.43c.11.82.74,1.13,2.27,1.2v.9h-5.77v-.9c1-.06,1.62-.38,1.73-1.2a31.85,31.85,0,0,0,.2-4.43v-4.26c0-1.72,0-2-.52-2.67a2.25,2.25,0,0,0-1.76-.72v-.91h5.12l7.74,9.63h0V418a37.82,37.82,0,0,0-.18-4.44c-.12-.81-.76-1.1-2.29-1.18v-.91h5.93v.91c-1.15.05-1.77.37-1.89,1.18a41.4,41.4,0,0,0-.17,4.44Z"/><path class="cls-2" d="M566.11,425.68l.69-.1c.86-.11.91-.35.6-1.18l-.83-2.36h-3.81l-.69,2.22c-.32,1-.32,1.24.76,1.35l.68.07v.9H558.1v-.9c1.18-.16,1.52-.26,2.3-2.21l4.65-12,1.59-.32,1.58,4.38c1,2.76,2,5.51,2.88,7.87.73,2,1.16,2.13,2.3,2.28v.9h-7.29Zm-3-5h3l-1.46-4.43h-.08Z"/><path class="cls-2" d="M531.41,450.72c0,2.5.19,2.67,2.13,2.8v.91h-8.12v-.91c1.86-.13,2-.3,2-2.8V440.56h-.4c-1.54,0-2.17.27-2.53.69a5.68,5.68,0,0,0-.87,2.25h-1c.1-1.95.24-3.56.28-4.73h.72a1.13,1.13,0,0,0,1.21.57h9.25c.62,0,.72-.14,1.1-.57H536c0,1,.15,2.94.25,4.66l-1,.07a5.72,5.72,0,0,0-1-2.39,3.16,3.16,0,0,0-2.27-.55h-.56Z"/><path class="cls-2" d="M543.56,450.72c0,2.5.19,2.67,1.79,2.8v.91h-7.51v-.91c1.6-.13,1.78-.3,1.78-2.8v-7.67c0-2.49-.18-2.65-1.78-2.8v-.91h7.51v.91c-1.6.15-1.79.31-1.79,2.8Z"/><path class="cls-2" d="M562.86,446.7c0,5-3.4,8.09-7.83,8.09a7.45,7.45,0,0,1-7.74-7.7c0-3.75,2.51-8.09,8-8.09a7.35,7.35,0,0,1,7.53,7.7m-11.26-.4c0,4.21,1.58,7.27,3.85,7.27,2,0,3.1-1.93,3.1-6.13,0-4.66-1.69-7.25-3.67-7.25-1.79,0-3.28,2.06-3.28,6.11"/><path class="cls-2" d="M538.27,467.19v.91c-1.78.16-1.85.25-1.78,2.69l.22,7.77c.07,2.57.12,2.65,1.79,2.81v.91h-7.27v-.91c1.74-.16,1.81-.24,1.79-2.81L533,470.4h-.1L528.37,482h-1.23l-4.26-10.81h-.06l-.16,5.14a27.75,27.75,0,0,0,.05,3.84c.1.86.6,1.07,2.11,1.18v.91h-5.74v-.91c1.12-.1,1.57-.32,1.72-1.18s.23-1.95.35-4.06l.27-4.69c.16-2.92,0-3.18-1.87-3.34v-.91H525l4.07,9.18,3.54-9.18Z"/><path class="cls-2" d="M541.85,470.91c0-2.52-.18-2.68-1.73-2.81v-.91h11c0,.4.14,2.09.28,3.82l-1,.08a4.35,4.35,0,0,0-.87-2.16c-.38-.4-1.14-.54-2.37-.54h-.39c-.88,0-.93,0-.93.81v4.48H547c2,0,2.07-.13,2.3-1.89h1v5.46h-1c-.23-2-.31-2.17-2.3-2.17H545.8v3.79c0,1.19.05,1.78.48,2a3.75,3.75,0,0,0,1.61.2,3.56,3.56,0,0,0,2.47-.68,7.05,7.05,0,0,0,1.13-2.4l1,.16a35.16,35.16,0,0,1-.82,4.14H539.9v-.9c1.77-.16,2-.32,2-2.81Z"/><path class="cls-2" d="M560.66,481.38l.69-.1c.87-.12.9-.36.6-1.19l-.83-2.36h-3.8l-.69,2.23c-.33,1-.33,1.23.75,1.34l.68.08v.9h-5.41v-.9c1.18-.17,1.54-.26,2.3-2.21l4.64-12,1.6-.32,1.57,4.38c1,2.76,2,5.51,2.88,7.86.75,2,1.16,2.14,2.31,2.29v.9h-7.29Zm-2.95-5h3l-1.46-4.43h-.07Z"/><path class="cls-4" d="M478,669a6.07,6.07,0,1,1-6.09-6.08A6.07,6.07,0,0,1,478,669"/><path class="cls-4" d="M539.52,679.08a6.07,6.07,0,1,1-6.07-6.07,6.07,6.07,0,0,1,6.07,6.07"/><path class="cls-4" d="M504.73,240.46a6.07,6.07,0,1,1-6.07-6.07,6.07,6.07,0,0,1,6.07,6.07"/><path class="cls-4" d="M649.17,297.27a6.08,6.08,0,1,1-5.82-6.32,6.08,6.08,0,0,1,5.82,6.32"/><path class="cls-4" d="M344.77,557.8a18.32,18.32,0,0,1,3.5,10.66c0,4.24-1.42,7.69-9,12.95L317.34,597l-4-5.8L336.12,575c3.87-2.68,5.53-4.63,5.53-7.71a10.75,10.75,0,0,0-2.11-6.07A9,9,0,0,0,332,557c-2.25,0-4.66,1.59-9,4.59l-20.6,14-4-5.71L318.1,556.6c5.45-3.84,9.8-6.46,13.84-6.46,5.9,0,10.19,3.85,12.83,7.66"/><polygon class="cls-4" points="274.74 515.01 316.43 500.39 318.75 506.71 294.89 535.86 325.04 523.92 327.28 530.07 286.06 545.9 283.76 539.59 307.73 510.42 276.98 521.16 274.74 515.01"/><rect class="cls-4" x="268.78" y="478.53" width="44.12" height="7.06" transform="translate(-67.64 47.94) rotate(-8.44)"/><polygon class="cls-4" points="267.21 429.19 267.39 421.87 310.92 439.56 310.63 446.83 265.9 460.18 265.95 452.83 302.21 442.67 267.21 429.19"/><path class="cls-4" d="M307,330.48c-6.24,0-9.13,3.58-13.12,10.77l-5.18,9.29,38.88,21.08,3.36-6.06-16.16-8.81.94-1.76c2.73-4.91,3.65-5.66,10.61-5.07L339,351l3.59-6.53L328,343.27c-2.91-.27-5.21-.48-7.08.06a7.5,7.5,0,0,0-2.08,1.07,11.89,11.89,0,0,0,.47-2.36,10.74,10.74,0,0,0-.54-3.59,11,11,0,0,0-5.48-6.23,12.88,12.88,0,0,0-6.28-1.74m-7.86,13.37c2.59-4.71,4.44-6.49,7.17-6.48a7.76,7.76,0,0,1,3.58,1,7.17,7.17,0,0,1,3.39,4.08,7,7,0,0,1,.25,1.92c0,2.61-1.48,5.25-3,8l-.88,1.63-12.44-6.67Z"/><polygon class="cls-4" points="355.32 268.13 360.94 263.85 387.71 298.91 382.1 303.19 355.32 268.13"/><polygon class="cls-4" points="379.56 250.93 408.09 236.07 410.87 241.43 399.78 247.2 417.37 280.99 411.1 284.25 393.51 250.47 382.33 256.28 379.56 250.93"/><polygon class="cls-4" points="450.75 222.65 458.19 220.57 452.2 250.08 457.05 266.85 450.32 268.78 445.58 252.16 424.63 230.3 431.89 228.19 446.97 243.89 450.75 222.65"/><polygon class="cls-4" points="585.37 282.96 607.78 244.95 628.85 257.37 625.79 262.58 610.74 253.7 604.55 264.21 618.71 272.56 615.72 277.66 601.54 269.31 591.41 286.52 585.37 282.96"/><polygon class="cls-4" points="698.75 381.25 714.8 362.03 717.31 369.64 705.35 383.32 723.11 387.32 725.47 394.48 701.17 388.61 683.91 409.3 681.44 401.81 694.48 386.62 674.98 382.19 672.62 374.94 698.75 381.25"/><polygon class="cls-4" points="686.12 424.61 730.11 421.02 732.09 445.41 726.08 445.9 724.66 428.49 712.5 429.48 713.82 445.87 707.95 446.35 706.61 429.96 686.7 431.58 686.12 424.61"/><path class="cls-4" d="M705.58,463.94a22.76,22.76,0,0,0-13.5,4.08,19.13,19.13,0,0,0-7.86,15.8c0,14.92,14,20.88,24.54,20.88a22.48,22.48,0,0,0,13.32-4c7.44-5.39,7.84-13.47,7.84-16.08,0-13-11.95-20.68-24.34-20.68m3.47,33.62c-8.59,0-18.63-4.68-18.63-13.34a12.4,12.4,0,0,1,5-10.18,16.59,16.59,0,0,1,9.85-2.92c4.38,0,12.27,1.24,16.41,7a11,11,0,0,1,2.14,6.67,12.3,12.3,0,0,1-5,10,16.36,16.36,0,0,1-9.72,2.78"/><path class="cls-4" d="M680,317.08a26,26,0,0,0-13.78,4.3c-8.47,5.38-11.57,13.08-11.57,18.71a19.47,19.47,0,0,0,3.08,10.49,19.17,19.17,0,0,0,16.53,9.21,26.21,26.21,0,0,0,13.9-4.41c5.46-3.45,11.52-9.88,11.52-18.59a19.39,19.39,0,0,0-3.11-10.47A19.2,19.2,0,0,0,680,317.08M673.09,353a11.32,11.32,0,0,1-10-5.55,11.92,11.92,0,0,1-1.9-6.28c0-5,3.16-10.11,8.94-13.78a20.53,20.53,0,0,1,11-3.61,11.35,11.35,0,0,1,10,5.5,12.42,12.42,0,0,1,2,6.73c0,4.87-3.08,9.66-8.68,13.19a21.65,21.65,0,0,1-11.34,3.8"/><path class="cls-4" d="M559.59,226.19c-9.2,0-17.2,6.2-20.43,17.19a25.64,25.64,0,0,0-1.16,7.21,22.41,22.41,0,0,0,2.53,11.2,19.51,19.51,0,0,0,17.24,10,18.86,18.86,0,0,0,9.13-2.29c7.44-4.07,12.36-13.51,12.36-22.55a22.26,22.26,0,0,0-2.5-10.8,19.35,19.35,0,0,0-17.17-10m-2.27,39.35a12,12,0,0,1-10.39-6.26,16.7,16.7,0,0,1-1.8-7.92c0-7.9,5.26-19,14.89-19,5.4,0,12.17,4,12.17,14,0,6.36-4.48,19.17-14.87,19.17"/><polygon class="cls-4" points="315.22 386.21 321.13 387.88 314.45 412.11 271.76 400.41 279.06 375.9 284.86 377.53 279.48 395.2 291.26 398.43 295.8 382.39 301.48 384 296.96 399.99 310.27 403.64 315.22 386.21"/><path class="cls-4" d="M326.4,294c6.13-6.87,12.4-6.4,12.4-6.4l1.07,5.82a13.07,13.07,0,0,0-8.6,4.4,8.51,8.51,0,0,0-2.49,5.5,4.76,4.76,0,0,0,1.68,3.68c3.06,2.73,8.28-.3,11.54-1.61,2.51-1,6.09-2.5,9.67-2.5a11.49,11.49,0,0,1,7.94,3,12.4,12.4,0,0,1,4.41,9.37c0,3.74-1.46,7.08-4.4,10.36a22.06,22.06,0,0,1-13.19,7l-1.5-5.9c4.47-1,7.84-2.75,9.87-5a8.58,8.58,0,0,0,2.42-5.6,5.85,5.85,0,0,0-2.06-4.43,5.46,5.46,0,0,0-3.91-1.31c-2.83,0-6.24,1.62-9,2.79-5.38,2.21-11,4-16.08-.53a11.06,11.06,0,0,1-3.95-8.41,15.38,15.38,0,0,1,4.2-10.2"/><path class="cls-4" d="M674.41,521l16.67,7.55-.82,1.88c-2.27,5.13-3.15,6-10.1,6H667.53l-3,6.82,14.56,0c2.95,0,5.24,0,7-.69a6.4,6.4,0,0,0,1.86-1.08c0,.37-.15.74-.16,1.12a11.68,11.68,0,0,0,.88,4.63c2,4.66,7.46,6.95,11.42,6.93,7,0,9.7-4.21,13.12-11.93.13-.29,4.09-9.46,4.09-9.46L677.2,514.69Zm26.05,26.17a6.88,6.88,0,0,1-7.1-7c0-2.42,1.17-4.92,2.36-7.56l.74-1.69,12.73,5.7-1.42,3.41c-2.37,5.38-3.92,7.11-7.31,7.11"/><path class="cls-4" d="M651.18,562.77c-4.58,5.73-8,10.86-8,17.47,0,5.62,2.54,12,9,17.15a22.47,22.47,0,0,0,14.1,5.27c6.13,0,11.07-1.83,18.7-11.42l7-8.77L657.43,555ZM666.9,596c-3.51,0-6.8-1.34-10.23-4.08s-7.15-7.1-7.15-12.6c0-3.84,2.08-7.5,5.28-11.5l2.92-3.68,25.2,20.13L681,586.67c-4.68,5.85-7.86,9.32-14.09,9.32"/><path class="cls-4" d="M751.72,451.23c0-139.16-113.39-252.36-252.76-252.36S246.22,312.07,246.22,451.23A252.15,252.15,0,0,0,356.5,659.66a59.37,59.37,0,0,0,78.93,40,257,257,0,0,0,28.33,7.54,120.49,120.49,0,0,1-10.33,21.22l.22,0-.22.12,5.25,5.27a9.42,9.42,0,1,1,4.51,17.69,13.33,13.33,0,0,1-10.61-6,39,39,0,0,0-1.24,9.85c0,18.13,19.75,38.84,47.19,47.56,27.44-8.53,47.22-29.38,47.21-47.53a33.18,33.18,0,0,0-1.25-9.88c-2.1,2.54-5.51,6-10.66,6a9.44,9.44,0,0,1,0-18.87,9.3,9.3,0,0,1,4.95,1.44l5.11-5.11.19,0a122.45,122.45,0,0,1-6.43-19.37c45.44-6.11,83.79-25.35,114.28-57.4l0,0c63.44-48.2,99.81-121.33,99.81-200.88M413.93,696.57a52.2,52.2,0,0,1-45.71-77.11c2.67,2.45,5.53,5,8.52,7.51a40.92,40.92,0,0,0-4,17.59c0,15.65,7.89,28.58,22.84,37.4a196.94,196.94,0,0,0,28.57,13.61,52.8,52.8,0,0,1-10.23,1m85-75.93a168.94,168.94,0,0,1-31.95-3,59.33,59.33,0,0,0-68.89-30.31,170,170,0,0,1-68.52-136c0-93.41,76-169.41,169.36-169.41s169.36,76,169.36,169.41S592.34,620.64,499,620.64m37.68,3c-5.08,7.25-8.09,17.33-9,27.52a262.41,262.41,0,0,1-43.26-15.46c2.4-4.67,9.33-8,14.58-8a177.26,177.26,0,0,0,37.68-4.08M483,627a19.15,19.15,0,0,0-5.12,5.63c-6.4-3.09-14.44-7.1-19.69-10.05,7.45,1.65,17.16,3.73,24.81,4.42m-69-34.79a52.4,52.4,0,0,1,43.33,23.27,167.6,167.6,0,0,1-24.64-8.31l0,.05-.25-.15a41.81,41.81,0,0,0-51.65,13.24c-3.2-1.77-6.39-3.63-9.52-5.58a51.93,51.93,0,0,1,42.76-22.52m119.9,133.06c-9.33,0-17,6.59-17,16.72,0,9.9,7.76,16.7,17,16.7a16.25,16.25,0,0,0,4-.56c-1.93,14-18.27,29.71-39.32,36.74-20.88-7-37.2-22.8-39.36-36.74a15.67,15.67,0,0,0,4,.56c10.05,0,17-7,17-16.7a16.62,16.62,0,0,0-16.59-16.68,107.92,107.92,0,0,0,7.6-16.72,197.88,197.88,0,0,0,33.62,3.12,250.25,250.25,0,0,0,25.4-1.31,120.78,120.78,0,0,0,4.64,15c-.34,0-.66-.09-1-.09m-29.05-20.64c-33.9,0-76.2-11.53-105.26-28.68-8.8-5.2-19.31-14.86-19.31-31.37a34.16,34.16,0,0,1,2.43-12.62c10.85,9,22.05,17.38,29.1,21.22a7.9,7.9,0,0,0,4.44,1.32,8.19,8.19,0,0,0,8.16-8.21,8.07,8.07,0,0,0-5-7.63c-6-2.62-18.6-7.82-32.15-14.84a34.14,34.14,0,0,1,27.25-13.65A33.68,33.68,0,0,1,429,613.4l9.3,5.42c29.54,18,105.51,64.3,197.26,38.87-34.83,31.42-77.72,46.92-130.78,46.92M647.07,646.7C606,661.24,567.68,660.24,535,652.93c1.08-14.6,7.13-30.2,16.35-33.11,72-22.34,124.47-89.47,124.47-168.59,0-97.33-79.34-176.52-176.84-176.52S322.13,353.9,322.13,451.23A177,177,0,0,0,390,590.14a60,60,0,0,0-25,20.57c-3.22-2.19-6.33-4.46-9.21-6.83l-1.62,1.6a114.45,114.45,0,0,0,8.51,8.84,58.74,58.74,0,0,0-8.27,30.07c0,1.7.11,3.38.25,5.05a245.06,245.06,0,0,1-101-198.21C253.67,316,363.72,206,499,206S744.24,316,744.24,451.23c0,77.46-35.41,148.63-97.17,195.47"/></g></svg>